<?xml version="1.0" encoding="UTF-8" standalone="no"?>
<svg
   width="100%"
   height="100%"
   viewBox="0 0 1000 1000"
   version="1.1"
   xml:space="preserve"
   style="fill-rule:evenodd;clip-rule:evenodd;stroke-linejoin:round;stroke-miterlimit:2;"
   id="svg3"
   sodipodi:docname="logo.svg"
   inkscape:version="1.4.2 (ebf0e940, 2025-05-08)"
   xmlns:inkscape="http://www.inkscape.org/namespaces/inkscape"
   xmlns:sodipodi="http://sodipodi.sourceforge.net/DTD/sodipodi-0.dtd"
   xmlns="http://www.w3.org/2000/svg"
   xmlns:svg="http://www.w3.org/2000/svg"
   xmlns:serif="http://www.serif.com/"><defs
   id="defs3" /><sodipodi:namedview
   id="namedview3"
   pagecolor="#ffffff"
   bordercolor="#000000"
   borderopacity="0.25"
   inkscape:showpageshadow="2"
   inkscape:pageopacity="0.0"
   inkscape:pagecheckerboard="0"
   inkscape:deskcolor="#d1d1d1"
   inkscape:zoom="0.5816309"
   inkscape:cx="471.08914"
   inkscape:cy="615.51063"
   inkscape:window-width="1496"
   inkscape:window-height="713"
   inkscape:window-x="0"
   inkscape:window-y="38"
   inkscape:window-maximized="0"
   inkscape:current-layer="svg3" />
    <g
   transform="matrix(1,0,0,1,-4970,-740.5)"
   id="g3">
        <g
   id="Base"
   transform="matrix(1.27164,0,0,1.27164,-1985.82,-836.543)">
            <rect
   x="5469.94"
   y="1240.16"
   width="786.383"
   height="786.383"
   style="fill:rgb(0,94,184);"
   id="rect1" />
        </g>
        <g
   id="Bottom"
   transform="matrix(1.27164,0,0,1.27164,-1985.82,-836.543)">
            <path
   d="M5716.42,2026.54L5469.94,2026.54L5469.94,1240.16L6256.32,1240.16L6256.32,1486.64L5716.42,2026.54Z"
   style="fill:rgb(33,149,56);"
   id="path1" />
        </g>
        <g
   id="Mid"
   transform="matrix(1.27164,0,0,1.27164,-1985.82,-836.543)">
            <path
   d="M5559.34,2026.54L5469.94,2026.54L5469.94,1240.16L6256.32,1240.16L6256.32,1329.56L5559.34,2026.54Z"
   style="fill:rgb(65,171,52);"
   id="path2" />
        </g>
        <g
   id="Top"
   transform="matrix(1.27164,0,0,1.27164,-1985.82,-836.543)">
            <path
   d="M5469.94,1958.64L5469.94,1240.16L6188.43,1240.16L5469.94,1958.64Z"
   style="fill:rgb(94,177,48);"
   id="path3" />
        </g>
    </g><g
   transform="matrix(2.8416045,0,0,2.8416045,-7291.9498,-2241.9025)"
   id="g2"
   style="clip-rule:evenodd;fill-rule:evenodd;stroke-linejoin:round;stroke-miterlimit:2">
        <g
   transform="scale(4.16667)"
   id="g1">
            <g
   id="REAR-LOGO"
   serif:id="REAR LOGO"
   transform="translate(650.095,218.98)">
                <path
   d="m 0,28.689 c 0.37,0.264 0.528,0.528 0.528,0.951 0,0.845 -0.369,1.109 -1.321,0.951 -0.845,-0.159 -1.796,-1.215 -1.796,-2.061 0,-0.475 0.053,-0.475 1.057,-0.369 0.528,0.053 1.215,0.317 1.532,0.528 M 29.269,-1.214 c 1.85,1.003 3.012,2.007 3.963,3.539 l 0.739,1.268 c 0.053,0.106 0.212,0.212 0.37,0.212 h 1.163 c 0.739,0 1.637,0.105 1.902,0.211 0.739,0.317 1.743,1.321 2.219,2.272 0.581,1.215 0.264,1.374 -3.382,1.532 -1.69,0.106 -3.592,0.211 -4.173,0.317 -2.431,0.317 -5.812,0.74 -7.714,1.215 C 22.348,9.88 15.11,12.311 13.103,13.315 11.887,13.896 9.404,15.058 9.087,15.058 8.77,15.005 8.559,14.583 8.242,13.42 7.766,11.835 7.502,11.201 6.287,9.246 5.917,8.612 5.653,7.979 5.653,7.767 c 0,-0.422 1.004,-1.585 1.215,-1.743 1.11,-0.846 3.329,-1.374 4.438,-1.48 1.48,-0.158 1.585,-0.105 2.219,0.423 0.37,0.317 0.793,0.581 0.951,0.581 0.159,0 0.581,-0.528 0.898,-1.215 1.163,-2.166 4.861,-5.125 7.186,-5.759 1.743,-0.475 2.271,-0.528 4.015,-0.475 1.215,0.105 1.796,0.211 2.694,0.687 M 22.718,-4.12 c -1.691,0.264 -1.268,0.211 -2.747,0.739 -1.532,0.476 -5.125,3.435 -5.97,4.967 -0.264,0.528 -0.37,0.528 -1.955,0.475 C 11.095,2.008 9.774,2.114 8.823,2.325 5.547,3.065 3.804,4.439 2.325,7.556 2.06,8.084 1.532,9.035 1.109,9.722 0.423,10.831 0.106,11.36 0.053,11.254 -0.053,11.148 -1.902,6.605 -2.219,5.812 -2.589,4.914 -3.54,3.012 -4.015,2.431 -4.385,2.008 -4.755,1.85 -5.23,1.85 c -1.11,0 -1.85,1.057 -4.491,6.129 -0.634,1.267 -1.268,2.271 -1.374,2.271 -0.106,0 -0.792,-0.158 -1.479,-0.317 -0.687,-0.158 -1.902,-0.475 -2.642,-0.634 -0.74,-0.158 -2.272,-0.528 -3.434,-0.792 -1.162,-0.264 -2.959,-0.74 -4.015,-1.057 -1.057,-0.264 -2.325,-0.634 -2.589,-0.687 -0.476,-0.105 -0.476,-0.052 -0.476,1.004 0,0.634 0.106,1.215 0.265,1.321 0.158,0.053 1.32,0.317 2.377,0.581 1.057,0.211 3.276,0.687 4.861,1.11 1.585,0.422 3.592,0.845 4.385,1.003 1.69,0.317 2.377,0.846 1.902,1.427 -0.37,0.528 -2.483,0.264 -7.344,-0.898 -2.695,-0.634 -3.646,-0.846 -5.019,-1.004 l -0.898,-0.053 c -0.264,0 -0.476,0.159 -0.476,0.423 v 0.422 c 0,1.057 0.212,1.216 2.061,1.48 0.845,0.105 1.585,0.317 1.796,0.422 0.159,0.106 1.215,0.37 2.377,0.634 3.382,0.74 5.548,1.374 5.865,1.638 0.211,0.264 0.211,0.423 0.053,0.793 -0.212,0.422 -0.317,0.475 -1.321,0.317 -1.004,-0.159 -1.585,-0.317 -4.385,-1.163 -1.427,-0.422 -3.699,-0.898 -5.125,-1.056 l -0.845,-0.106 c -0.264,-0.053 -0.476,0.159 -0.476,0.423 v 0.422 c 0,1.057 0.476,1.427 1.691,1.427 1.691,0 7.661,1.426 9.351,2.43 0.317,0.212 1.268,0.846 1.268,1.215 0,0.265 -2.113,0.053 -3.698,-0.317 -4.332,-1.003 -7.344,-1.585 -7.872,-1.532 -0.528,0.053 -0.634,0.159 -0.687,0.74 -0.053,0.951 0.264,1.162 1.321,1.321 0.528,0.053 2.324,0.422 4.015,0.792 1.691,0.37 3.329,0.74 3.646,0.793 0.264,0 1.532,0.422 1.954,0.528 0.476,0.106 1.163,0.317 1.533,0.423 3.381,1.004 3.434,1.004 3.698,1.638 0.211,0.475 0.211,0.739 0.053,1.162 -0.212,0.475 -0.317,0.528 -0.898,0.423 -0.37,-0.053 -1.004,-0.265 -1.374,-0.423 -0.37,-0.159 -1.268,-0.476 -1.955,-0.687 -0.687,-0.211 -2.008,-0.581 -2.906,-0.898 -2.43,-0.793 -7.449,-2.113 -8.347,-2.166 -0.687,-0.053 -0.74,-0.053 -0.793,0.792 -0.105,1.057 0.317,1.427 1.268,1.532 1.268,0.159 7.978,1.85 8.982,2.325 0.792,0.317 4.385,1.427 4.702,1.743 0.475,0.529 0.053,0.846 -0.898,0.687 -0.476,-0.053 -1.163,-0.158 -1.585,-0.264 -0.898,-0.158 -2.114,-0.423 -4.914,-1.215 -0.422,-0.106 -1.004,-0.264 -1.321,-0.264 -0.264,-0.053 -1.585,-0.37 -2.905,-0.687 -1.321,-0.317 -2.748,-0.687 -3.012,-0.687 -0.422,-0.105 -0.475,-0.053 -0.37,0.951 0,0.37 0.053,0.687 0.106,0.898 0,0.159 0.106,0.265 0.264,0.37 0.212,0.106 0.529,0.211 0.898,0.264 1.216,0.159 6.288,1.427 9.088,2.166 2.8,0.793 4.702,0.951 5.758,0.476 0.687,-0.264 0.899,-0.581 1.427,-1.849 0.74,-1.638 0.951,-3.54 0.581,-4.755 -0.211,-0.581 -0.687,-1.162 -1.796,-2.061 -1.532,-1.268 -2.166,-2.271 -2.166,-3.222 0,-1.057 1.215,-6.34 1.849,-7.978 0.37,-0.898 0.951,-2.219 1.373,-2.906 0.423,-0.74 1.11,-1.955 1.585,-2.8 0.846,-1.479 1.321,-2.113 1.533,-1.902 0.158,0.158 2.43,5.97 3.751,9.615 1.426,3.91 1.532,5.02 0.845,6.71 -0.475,1.004 -0.687,1.268 -1.796,1.955 -0.74,0.423 -1.638,1.057 -2.008,1.479 -0.581,0.582 -0.687,0.793 -0.687,1.744 0,1.532 0.37,3.54 0.846,4.543 0.211,0.476 0.792,1.163 1.268,1.48 0.739,0.581 1.003,0.687 2.271,0.687 1.902,0 3.065,-0.687 3.434,-1.902 0.529,-1.902 -0.528,-3.276 -3.117,-4.174 -1.373,-0.476 -2.166,-1.004 -1.902,-1.374 0.212,-0.422 1.163,-0.317 2.166,0.159 0.846,0.422 0.951,0.422 1.638,0.053 0.634,-0.317 0.74,-0.529 0.793,-1.216 C 2.325,23.459 2.219,23.194 1.585,22.402 L 1.004,21.715 C 0.898,21.557 0.845,21.398 0.951,21.24 L 1.268,20.658 C 1.955,19.443 2.06,17.594 1.638,16.22 L 1.321,15.269 c -0.053,-0.105 -0.053,-0.211 0,-0.317 L 2.113,13.05 c 0.476,-1.109 1.004,-2.166 1.11,-2.324 0.845,-1.11 2.483,1.426 3.54,5.547 0.422,1.744 0.422,2.008 0.211,3.329 -0.317,1.69 -1.004,2.853 -2.113,3.592 -0.899,0.582 -1.057,1.216 -0.529,1.955 0.159,0.264 0.317,0.793 0.423,1.215 0.158,1.11 0.792,1.85 2.642,3.012 0.211,0.105 0.845,0.634 1.532,1.109 1.268,0.951 1.638,1.215 2.958,2.166 0.687,0.529 1.004,0.582 1.585,0.476 0.37,-0.053 0.74,-0.264 0.846,-0.37 0.211,-0.37 -1.427,-1.902 -4.121,-3.804 -2.906,-2.007 -3.434,-2.641 -3.434,-3.592 0,-0.687 0.052,-0.74 0.528,-0.74 0.317,0 1.057,0.423 1.796,1.057 0.687,0.581 1.48,1.215 1.797,1.426 1.532,1.11 2.113,1.638 4.279,3.698 l 2.272,2.114 c 0.105,0.052 0.158,0.105 0.317,0.105 h 1.056 c 0.899,0 1.216,-0.053 1.163,-0.264 C 19.707,31.859 14.001,26.734 9.668,23.459 8.4,22.508 8.083,21.979 8.665,21.768 c 0.369,-0.159 2.377,0.423 3.17,0.951 0.369,0.211 1.32,0.845 2.166,1.374 1.162,0.739 2.483,2.007 5.177,4.913 l 3.54,3.804 c 0.053,0.053 0.159,0.106 0.264,0.158 l 1.849,0.159 c 2.484,0.211 4.544,-0.053 5.284,-0.37 0.739,-0.317 5.177,-1.691 6.075,-1.955 0.529,-0.158 3.752,-0.845 4.703,-0.845 l 0.264,-0.053 c 0.264,-0.053 0.422,-0.264 0.422,-0.528 l 0.053,-0.528 v -0.582 c 0,-0.264 -0.211,-0.475 -0.475,-0.422 l -0.581,0.053 c -3.751,0.369 -6.605,1.056 -8.137,1.585 -1.426,0.475 -3.539,1.162 -5.336,1.584 -2.06,0.476 -2.906,0.37 -2.8,-0.475 0.053,-0.37 0.317,-0.581 1.11,-0.845 0.581,-0.212 1.162,-0.423 1.32,-0.529 0.793,-0.369 3.012,-1.056 4.967,-1.637 1.479,-0.423 4.543,-0.846 6.498,-1.11 l 3.064,-0.528 c 0.212,-0.053 0.37,-0.212 0.37,-0.423 v -0.792 c 0,-1.374 -0.37,-1.057 -3.54,-0.74 -3.803,0.423 -6.604,1.057 -10.302,2.377 -2.853,1.004 -4.755,1.638 -5.336,1.744 -0.476,0.053 -1.268,-0.528 -1.268,-1.004 0,-0.423 1.215,-1.057 2.589,-1.479 0.687,-0.212 1.743,-0.476 2.377,-0.687 2.589,-0.74 7.819,-1.796 13.208,-2.642 l 1.955,-0.264 c 0.212,-0.053 0.37,-0.211 0.37,-0.423 v -1.32 c 0,-0.265 -0.211,-0.423 -0.423,-0.423 l -2.06,0.053 c -2.166,0 -7.925,0.898 -10.038,1.479 -2.906,0.793 -6.921,2.061 -8.401,2.747 -0.845,0.37 -2.007,0.74 -2.694,0.423 -0.845,-0.475 -0.476,-0.634 0.951,-1.532 1.69,-1.057 7.766,-3.223 10.566,-3.751 1.585,-0.317 8.084,-1.321 10.408,-1.321 l 1.216,-0.053 c 0.211,0 0.422,-0.211 0.422,-0.423 l 0.053,-0.898 c 0,-0.898 0,-1.268 -0.158,-1.268 -0.159,0 -2.484,0.159 -4.703,0.37 -3.698,0.317 -6.181,0.845 -9.615,1.638 -2.695,0.687 -6.71,2.219 -7.925,2.747 -2.43,1.11 -4.755,1.902 -5.072,1.691 -0.898,-0.581 -0.053,-1.638 2.061,-2.695 0.264,-0.158 0.686,-0.317 0.898,-0.422 0.845,-0.476 1.109,-0.581 1.585,-0.846 0.845,-0.369 4.385,-1.585 5.283,-1.796 0.475,-0.106 1.849,-0.475 3.117,-0.792 2.8,-0.74 7.555,-1.427 9.616,-1.427 0.845,0 2.377,-0.106 3.275,-0.158 l 1.215,-0.106 c 0.212,0 0.37,-0.211 0.37,-0.423 v -1.321 c 0,-0.264 -0.317,-0.369 -0.528,-0.369 h -0.423 c -0.475,0 -2.747,0.105 -5.072,0.211 -4.121,0.211 -10.408,1.638 -11.623,1.902 -1.955,0.475 -9.298,3.434 -11.57,5.072 -1.48,1.057 -1.849,1.109 -2.483,0.528 -0.423,-0.37 -0.423,-0.475 -0.212,-0.898 0.159,-0.264 0.581,-0.581 0.898,-0.792 1.427,-1.163 9.246,-4.386 13.05,-5.548 3.646,-1.057 9.563,-1.955 14.952,-2.219 l 2.747,-0.158 c 0.211,0 0.423,-0.212 0.423,-0.423 V 7.292 c 0,-2.959 -0.264,-3.434 -3.17,-5.336 C 38.304,1.744 37.458,1.533 36.825,1.427 35.768,1.322 35.504,1.216 35.292,0.74 34.922,0.001 33.021,-1.901 31.964,-2.641 29.903,-3.909 26.047,-4.649 22.718,-4.12"
   style="fill:#ffffff;fill-rule:nonzero"
   id="path1-7" />
            </g>
        </g>
    </g>
</svg>
